# xmcd
#
# Track frame offsets:
#	150
#	17369
#	43742
#	60610
#	77405
#	90516
#	118213
#	134438
#	150799
#	176682
#
# Disc length: 2645 seconds
#
# Revision: 1
# Processed by: cddbd v1.5.2PL0 Copyright (c) Steve Scherf et al.
# Submitted via: audiograbber 1.82.02
#
DISCID=6f0a530a
DTITLE=JAVIER BATIZ - EL BAUL DEL BRUJO VOL 6
DYEAR=1900
DGENRE=
TTITLE0=CUANDO EL DESTINO NOS ALCANCE
TTITLE1=BAD BOY
TTITLE2=HERE COMES THE NIGHT
TTITLE3=GREEN BACK DOLLAR
TTITLE4=IM READY
TTITLE5=I WOKE UP THIS MORNING
TTITLE6=SAINT JAMES INFIRMARY
TTITLE7=CORINA CORINA
TTITLE8=I PITTY THE FOOL
TTITLE9=YOU CAN MAKE IT IF YOU TRY
EXTD=
EXTT0=
EXTT1=
EXTT2=
EXTT3=
EXTT4=
EXTT5=
EXTT6=
EXTT7=
EXTT8=
EXTT9=
PLAYORDER=
